<?xml version="1.0" standalone="no"?>
<!DOCTYPE svg PUBLIC "-//W3C//DTD SVG 20010904//EN"
 "http://www.w3.org/TR/2001/REC-SVG-20010904/DTD/svg10.dtd">
<svg version="1.0" xmlns="http://www.w3.org/2000/svg"
 width="700.000000pt" height="700.000000pt" viewBox="0 0 700.000000 700.000000"
 preserveAspectRatio="xMidYMid meet">
<metadata>
Created by potrace 1.14, written by Peter Selinger 2001-2017
</metadata>
<g transform="translate(0.000000,700.000000) scale(0.100000,-0.100000)"
fill="#000000" stroke="none">
<path d="M2197 6980 c-104 -37 -190 -106 -243 -195 -29 -51 -62 -174 -58 -221
10 -127 45 -219 110 -288 l35 -38 1 -349 c0 -192 -2 -352 -5 -355 -3 -3 -41
-18 -85 -33 -269 -94 -460 -333 -488 -611 -3 -30 -7 -60 -9 -66 -2 -7 -36 -12
-91 -12 -48 -1 -101 -4 -118 -8 -65 -14 -134 -61 -173 -119 -53 -78 -53 -82
-50 -620 2 -500 2 -500 25 -543 31 -59 95 -120 150 -144 34 -15 71 -21 149
-23 57 -1 105 -4 107 -6 2 -2 6 -31 10 -64 6 -66 7 -70 25 -135 57 -200 223
-385 418 -465 l52 -21 -127 -41 c-70 -22 -194 -62 -277 -87 -207 -65 -315
-108 -384 -155 -199 -135 -309 -333 -326 -586 -3 -49 -8 -108 -10 -130 -2 -22
-7 -87 -10 -145 -4 -58 -8 -127 -10 -155 -5 -60 -14 -182 -20 -285 -3 -41 -7
-100 -10 -130 -2 -30 -7 -93 -10 -140 -3 -47 -8 -119 -11 -160 -3 -41 -7 -97
-9 -125 -2 -27 -7 -97 -11 -155 -15 -195 -12 -275 12 -307 46 -62 50 -63 472
-63 211 0 381 3 379 8 -3 4 -8 50 -11 102 -7 101 -16 173 -21 178 -2 2 -125 4
-273 4 l-271 0 4 56 c2 31 6 91 9 132 3 41 8 107 11 145 11 154 16 233 20 285
6 76 15 203 20 275 11 168 16 235 20 285 3 30 7 93 10 140 17 296 38 363 142
467 70 70 103 87 294 148 316 102 424 136 654 210 132 42 256 81 275 88 19 6
40 12 45 13 6 1 37 12 69 23 33 12 61 20 62 18 2 -2 28 -104 58 -227 31 -124
64 -235 74 -249 45 -60 23 -58 702 -58 687 -1 661 -3 707 65 12 18 27 59 34
90 7 31 13 59 14 62 0 3 4 14 8 25 3 11 8 31 11 45 8 47 58 236 64 247 5 8 76
-12 217 -58 116 -38 394 -130 618 -204 224 -74 427 -145 450 -156 149 -75 229
-210 242 -406 8 -124 15 -220 20 -278 3 -27 7 -90 10 -140 3 -49 8 -117 10
-150 3 -33 7 -96 10 -140 3 -44 8 -105 10 -135 2 -30 7 -98 10 -150 4 -52 8
-113 10 -135 9 -112 18 -255 19 -290 l1 -40 -269 -2 c-148 -1 -270 -3 -271 -5
-3 -4 -13 -90 -20 -182 -3 -38 -6 -72 -7 -75 -3 -32 -2 -32 390 -29 425 3 418
2 459 64 22 35 22 176 -2 479 -2 22 -6 87 -9 145 -4 58 -8 123 -11 145 -2 22
-7 78 -10 125 -3 47 -8 114 -10 150 -3 36 -7 97 -10 135 -3 39 -7 97 -10 130
-2 33 -7 98 -10 145 -3 47 -8 110 -10 140 -3 30 -7 91 -10 135 -3 44 -8 87
-10 95 -2 8 -7 30 -10 49 -18 109 -101 256 -195 351 -113 114 -184 147 -540
260 -300 95 -324 102 -340 107 -8 2 20 22 65 44 233 114 385 330 411 583 4 34
8 63 9 64 2 2 51 5 108 7 88 3 113 7 160 30 65 30 111 78 143 149 22 51 22 54
23 537 2 530 1 537 -56 621 -30 44 -101 94 -152 108 -20 5 -79 10 -131 11
l-95 2 -12 92 c-25 201 -134 384 -298 500 -68 48 -153 89 -220 106 -25 6 -48
16 -51 21 -4 7 -8 486 -5 669 1 26 10 46 31 70 155 174 148 438 -16 602 -171
171 -442 170 -613 -1 -32 -32 -69 -78 -81 -103 -68 -135 -64 -295 9 -422 l28
-49 -17 -62 c-10 -33 -55 -203 -100 -377 l-83 -317 -617 1 -618 0 -27 106
c-81 312 -167 636 -171 640 -2 2 10 27 26 56 140 245 17 558 -253 639 -71 21
-193 19 -260 -4z m203 -290 c115 -62 100 -221 -25 -264 -66 -23 -151 16 -175
79 -49 128 82 248 200 185z m2351 -11 c43 -30 62 -74 57 -129 -13 -137 -178
-180 -260 -69 -25 34 -31 106 -11 147 36 75 144 101 214 51z m-2303 -626 c12
-43 41 -157 66 -253 24 -96 47 -182 49 -190 3 -8 8 -27 11 -42 l6 -26 -123 0
-123 1 1 291 c1 160 3 291 4 292 0 0 21 1 45 3 l44 2 20 -78z m2213 68 c1 -3
3 -135 4 -292 l1 -286 -123 -1 c-68 0 -123 3 -123 7 0 4 7 32 16 62 9 30 17
59 19 64 1 6 6 28 12 50 6 22 30 114 53 205 23 91 44 173 46 182 4 13 16 17
50 16 24 0 45 -3 45 -7z m240 -881 c141 -27 268 -136 326 -281 16 -40 18 -108
20 -847 4 -879 4 -872 -54 -972 -66 -111 -194 -202 -308 -216 -65 -9 -2696 -9
-2755 -1 -175 24 -309 140 -361 309 -18 60 -19 104 -19 848 1 469 5 802 10
827 36 156 163 287 320 329 58 16 2738 20 2821 4z m-867 -2621 c3 -3 -3 -41
-15 -85 -11 -43 -22 -88 -24 -99 -3 -11 -9 -38 -15 -61 l-12 -41 -468 1 -469
0 -7 25 c-4 15 -8 31 -9 36 -2 6 -8 30 -15 55 -7 25 -14 52 -15 61 -2 9 -8 34
-14 55 -6 22 -11 44 -11 49 0 11 1063 15 1074 4z"/>
<path d="M2267 4949 c-94 -21 -171 -90 -206 -183 -18 -48 -19 -87 -19 -681 0
-674 0 -673 50 -749 11 -17 39 -46 63 -63 86 -67 3 -63 1344 -63 1318 -1 1257
-3 1334 52 43 31 71 64 99 118 l23 45 0 655 0 655 -28 57 c-30 61 -74 105
-140 140 l-42 23 -1220 1 c-671 1 -1237 -3 -1258 -7z m624 -311 c62 -29 100
-64 137 -128 24 -39 27 -56 27 -130 0 -68 -5 -94 -22 -131 -67 -134 -225 -198
-364 -146 -70 26 -148 104 -171 172 -84 244 161 470 393 363z m1465 -3 c216
-106 216 -414 1 -520 -178 -86 -388 26 -415 221 -17 125 45 240 161 300 74 39
172 39 253 -1z m-502 -859 c107 -44 106 -212 -2 -260 -33 -15 -73 -17 -367
-14 l-330 3 -32 24 c-83 62 -75 184 15 243 24 16 58 18 355 18 257 0 335 -3
361 -14z"/>
<path d="M1995 1741 c-125 -31 -217 -146 -218 -274 -1 -58 7 -172 18 -277 3
-25 7 -74 10 -110 3 -36 7 -87 10 -115 4 -45 9 -105 19 -236 2 -25 7 -83 11
-130 3 -46 8 -100 10 -119 2 -19 7 -73 10 -120 4 -47 8 -101 11 -120 2 -19 6
-75 9 -125 4 -50 8 -96 10 -102 4 -10 333 -13 1604 -13 880 0 1602 3 1604 8 3
4 8 52 11 107 4 55 8 114 10 130 2 17 7 70 11 120 3 49 8 103 10 120 2 16 7
71 10 120 4 50 8 106 10 125 2 19 6 76 10 125 3 50 8 101 10 115 2 14 7 66 10
117 3 50 7 100 9 110 2 10 7 70 11 133 4 63 8 117 10 120 6 9 -14 104 -27 130
-28 57 -80 109 -139 139 l-62 31 -1486 -1 c-817 -1 -1499 -4 -1516 -8z m1685
-469 c81 -38 138 -87 183 -154 112 -172 92 -398 -50 -545 -282 -291 -772 -74
-748 332 7 115 69 236 158 307 47 36 127 84 127 74 0 -2 17 3 38 10 25 10 67
13 132 11 82 -3 105 -8 160 -35z"/>
<path d="M3430 1000 c-67 -35 -93 -119 -59 -187 40 -78 124 -104 198 -62 100
56 100 198 -1 250 -46 24 -93 24 -138 -1z"/>
</g>
</svg>
